<svg width="715" height="715" xmlns="http://www.w3.org/2000/svg" xmlns:xlink="http://www.w3.org/1999/xlink" xml:space="preserve" overflow="hidden"><g transform="translate(-2730 -1662)"><path d="M2740.5 2019.5C2740.5 1827.86 2895.86 1672.5 3087.5 1672.5 3279.14 1672.5 3434.5 1827.86 3434.5 2019.5 3434.5 2211.14 3279.14 2366.5 3087.5 2366.5 2895.86 2366.5 2740.5 2211.14 2740.5 2019.5Z" stroke="#0EAFE0" stroke-width="20.625" stroke-miterlimit="8" fill="none" fill-rule="evenodd"/><path d="M3138.74 1858 3138.74 1858 3040.75 1858C3026.02 1858 3012.57 1866.99 3007.44 1881.13L2997.83 1906.18 2932.51 1906.18C2912.65 1906.18 2896 1922.24 2896 1942.16L2896 2158.02C2896 2177.94 2912.65 2194 2932.51 2194L3243.13 2194C3262.99 2194 3279 2177.94 3279 2158.02L3279 1942.16C3279 1922.24 3262.99 1906.18 3243.13 1906.18L3177.81 1906.18 3166.92 1877.27C3162.43 1865.71 3151.55 1858 3138.74 1858ZM3138.74 1881.77 3138.74 1881.77C3141.3 1881.77 3143.86 1883.7 3144.5 1885.63L3161.15 1929.95 3243.13 1929.95C3250.18 1929.95 3255.3 1935.09 3255.3 1942.16L3255.3 2158.02C3255.3 2164.45 3250.18 2170.23 3243.13 2170.23L2932.51 2170.23C2925.46 2170.23 2920.34 2164.45 2920.34 2158.02L2920.34 1942.16C2920.34 1935.09 2925.46 1929.95 2932.51 1929.95L3014.49 1929.95 3029.86 1889.48C3031.14 1884.98 3035.62 1881.77 3040.75 1881.77L3138.74 1881.77ZM3063.8 2050.09 3063.8 2050.09C3063.8 2036.6 3074.69 2026.32 3087.5 2026.32 3094.55 2026.32 3099.67 2020.54 3099.67 2014.11 3099.67 2007.69 3094.55 2001.91 3087.5 2001.91 3061.24 2001.91 3040.11 2023.75 3040.11 2050.09 3040.11 2056.52 3045.23 2062.3 3051.63 2062.3 3058.68 2062.3 3063.8 2056.52 3063.8 2050.09ZM3087.5 1983.92 3087.5 1983.92C3051.63 1983.92 3022.17 2013.47 3022.17 2050.09 3022.17 2086.71 3051.63 2116.26 3087.5 2116.26 3124.01 2116.26 3153.47 2086.71 3153.47 2050.09 3153.47 2013.47 3124.01 1983.92 3087.5 1983.92ZM3087.5 2140.03 3087.5 2140.03C3038.18 2140.03 2997.83 2099.56 2997.83 2050.09 2997.83 2000.62 3038.18 1960.15 3087.5 1960.15 3137.46 1960.15 3177.81 2000.62 3177.81 2050.09 3177.81 2099.56 3137.46 2140.03 3087.5 2140.03Z" fill="#0EAFE0" fill-rule="evenodd"/></g></svg>