<svg width="715" height="715" xmlns="http://www.w3.org/2000/svg" xmlns:xlink="http://www.w3.org/1999/xlink" xml:space="preserve" overflow="hidden"><g transform="translate(-3650 -99)"><path d="M3660.5 456.5C3660.5 264.857 3815.86 109.5 4007.5 109.5 4199.14 109.5 4354.5 264.857 4354.5 456.5 4354.5 648.143 4199.14 803.5 4007.5 803.5 3815.86 803.5 3660.5 648.143 3660.5 456.5Z" stroke="#69CA00" stroke-width="20.625" stroke-miterlimit="8" fill="none" fill-rule="evenodd"/><path d="M3986.9 379.063 3986.9 379.063 3835.25 467.409C3834.82 463.079 3834.82 459.181 3834.82 455.716 3834.82 405.48 3856.36 358.276 3893.84 325.362L3986.9 379.063ZM4082.11 476.504 4082.11 476.504 4082.11 300.677C4130.36 324.496 4164.83 369.535 4175.17 422.37L4082.11 476.504ZM4119.16 585.638 4119.16 585.638 4026.1 531.937 4177.75 443.591C4178.18 447.488 4178.18 451.386 4178.18 455.716 4178.18 505.52 4156.64 552.724 4119.16 585.638ZM3950.71 510.716 3950.71 510.716 4102.36 598.63C4073.92 618.118 4040.75 628.079 4006.28 628.079 3987.33 628.079 3968.37 625.047 3950.71 618.551L3950.71 510.716ZM3950.71 488.197 3950.71 488.197 3950.71 423.236 4006.72 390.756 4062.29 423.236 4062.29 487.764 4006.28 520.244 3950.71 488.197ZM3910.64 312.37 3910.64 312.37C3939.08 292.882 3972.25 282.921 4006.28 282.921 4025.67 282.921 4044.63 285.953 4062.29 292.449L4062.29 400.283 3910.64 312.37ZM3930.89 434.496 3930.89 434.496 3930.89 610.323C3882.64 586.504 3848.17 541.465 3837.83 488.63L3930.89 434.496ZM4006.28 263 4006.28 263C3901.16 263 3815 349.614 3815 455.716 3815 561.386 3901.16 648 4006.28 648 4111.84 648 4198 561.386 4198 455.716 4198 349.614 4111.84 263 4006.28 263Z" fill="#69CA00" fill-rule="evenodd"/></g></svg>