<svg width="714" height="715" xmlns="http://www.w3.org/2000/svg" xmlns:xlink="http://www.w3.org/1999/xlink" xml:space="preserve" overflow="hidden"><g transform="translate(-921 -1662)"><path d="M931.5 2019.5C931.5 1827.86 1086.63 1672.5 1278 1672.5 1469.37 1672.5 1624.5 1827.86 1624.5 2019.5 1624.5 2211.14 1469.37 2366.5 1278 2366.5 1086.63 2366.5 931.5 2211.14 931.5 2019.5Z" stroke="#0EAFE0" stroke-width="20.625" stroke-miterlimit="8" fill="none" fill-rule="evenodd"/><rect x="1086" y="1826" width="383" height="383" fill="#0EAFE0"/><path d="M1132 2164 1248 1965 1364 2164Z" fill-rule="evenodd"/><path d="M1312 1937C1312 1908.28 1335.06 1885 1363.5 1885 1391.94 1885 1415 1908.28 1415 1937 1415 1965.72 1391.94 1989 1363.5 1989 1335.06 1989 1312 1965.72 1312 1937Z" fill-rule="evenodd"/></g></svg>