<svg width="715" height="715" xmlns="http://www.w3.org/2000/svg" xmlns:xlink="http://www.w3.org/1999/xlink" xml:space="preserve" overflow="hidden"><g transform="translate(-16 -868)"><path d="M26.5 1225.5C26.5 1033.86 181.857 878.5 373.5 878.5 565.143 878.5 720.5 1033.86 720.5 1225.5 720.5 1417.14 565.143 1572.5 373.5 1572.5 181.857 1572.5 26.5 1417.14 26.5 1225.5Z" stroke="#F9B500" stroke-width="20.625" stroke-miterlimit="8" fill="none" fill-rule="evenodd"/><path d="M533.766 1134.71C421.689 1134.71 421.689 1134.71 421.689 1134.71 390.455 1103.44 390.455 1103.44 390.455 1103.44 385.861 1098.84 380.349 1097 374.837 1097 288.483 1097 288.483 1097 288.483 1097 271.029 1097 256.33 1110.79 256.33 1128.27 256.33 1172.41 256.33 1172.41 256.33 1172.41 212.235 1172.41 212.235 1172.41 212.235 1172.41 195.699 1172.41 181 1187.12 181 1203.68 181 1373.81 181 1373.81 181 1373.81 181 1391.29 195.699 1406 212.235 1406 458.436 1406 458.436 1406 458.436 1406 475.89 1406 489.67 1391.29 489.67 1373.81 489.67 1329.67 489.67 1329.67 489.67 1329.67 533.766 1329.67 533.766 1329.67 533.766 1329.67 551.22 1329.67 565 1315.87 565 1298.4 565 1165.97 565 1165.97 565 1165.97 565 1148.5 551.22 1134.71 533.766 1134.71ZM540.196 1165.97C540.196 1298.4 540.196 1298.4 540.196 1298.4 540.196 1302.08 537.44 1304.84 533.766 1304.84 288.483 1304.84 288.483 1304.84 288.483 1304.84 284.809 1304.84 282.053 1302.08 282.053 1298.4 282.053 1128.27 282.053 1128.27 282.053 1128.27 282.053 1124.59 284.809 1121.83 288.483 1121.83 373.919 1121.83 373.919 1121.83 373.919 1121.83 405.153 1153.1 405.153 1153.1 405.153 1153.1 408.828 1157.7 414.34 1160.46 420.77 1160.46 533.766 1160.46 533.766 1160.46 533.766 1160.46 537.44 1160.46 540.196 1163.21 540.196 1165.97ZM206.723 1203.68C206.723 1200.92 209.479 1198.16 212.235 1198.16 256.33 1198.16 256.33 1198.16 256.33 1198.16 256.33 1298.4 256.33 1298.4 256.33 1298.4 256.33 1315.87 271.029 1329.67 288.483 1329.67 463.948 1329.67 463.948 1329.67 463.948 1329.67 463.948 1373.81 463.948 1373.81 463.948 1373.81 463.948 1377.49 461.192 1380.25 458.436 1380.25 212.235 1380.25 212.235 1380.25 212.235 1380.25 209.479 1380.25 206.723 1377.49 206.723 1373.81L206.723 1203.68Z" fill="#F9B500" fill-rule="evenodd"/><path d="M6.875-1.33021e-05 6.87529 152.147-6.87471 152.147-6.875 1.33021e-05ZM20.6253 145.272 0.000360892 186.522-20.6247 145.272Z" fill="#F9B500" transform="matrix(1 0 0 -1 442 1232.52)"/></g></svg>