<svg width="660" height="330" xmlns="http://www.w3.org/2000/svg" xmlns:xlink="http://www.w3.org/1999/xlink" xml:space="preserve" overflow="hidden"><defs><clipPath id="clip0"><rect x="2146" y="1964" width="660" height="330"/></clipPath><linearGradient x1="2198.51" y1="2128.24" x2="2753.09" y2="2128.24" gradientUnits="userSpaceOnUse" spreadMethod="reflect" id="fill1"><stop offset="0" stop-color="#F9B500"/><stop offset="0.1" stop-color="#F9B500"/><stop offset="0.45" stop-color="#69CA00"/><stop offset="0.55" stop-color="#69CA00"/><stop offset="0.9" stop-color="#0EAFE0"/><stop offset="1" stop-color="#0EAFE0"/></linearGradient></defs><g clip-path="url(#clip0)" transform="translate(-2146 -1964)"><path d="M2146 2019C2146 1988.62 2170.62 1964 2201 1964L2751 1964C2781.38 1964 2806 1988.62 2806 2019L2806 2239C2806 2269.38 2781.38 2294 2751 2294L2201 2294C2170.62 2294 2146 2269.38 2146 2239Z" fill="#262626" fill-rule="evenodd"/><path d="M2425.76 2132.17 2425.76 2154.95 2444.28 2154.95C2448.49 2154.95 2451.75 2154 2454.05 2152.09 2456.36 2150.18 2457.51 2147.41 2457.51 2143.78 2457.51 2140.15 2456.31 2137.31 2453.91 2135.25 2451.51 2133.2 2448.2 2132.17 2443.98 2132.17ZM2425.76 2092.18 2425.76 2113.79 2442.22 2113.79C2446.34 2113.79 2449.5 2112.89 2451.7 2111.07 2453.91 2109.26 2455.01 2106.59 2455.01 2103.06 2455.01 2099.53 2453.91 2096.84 2451.7 2094.98 2449.5 2093.11 2446.34 2092.18 2442.22 2092.18ZM2670.03 2072.04 2749.85 2072.04 2749.85 2092.18 2722.51 2092.18 2722.51 2175.24 2697.38 2175.24 2697.38 2092.18 2670.03 2092.18ZM2632.62 2072.04 2657.76 2072.04 2657.76 2175.24 2632.62 2175.24ZM2497.62 2072.04 2527.31 2072.04 2556.27 2143.49 2584.94 2072.04 2614.48 2072.04 2614.48 2175.24 2589.35 2175.24 2589.35 2113.35 2566.27 2175.24 2545.98 2175.24 2522.76 2113.2 2522.76 2175.24 2497.62 2175.24ZM2400.62 2072.04 2447.07 2072.04C2457.56 2072.04 2465.76 2074.45 2471.69 2079.25 2477.62 2084.05 2480.59 2090.57 2480.59 2098.8 2480.59 2104.88 2478.99 2109.92 2475.81 2113.94 2472.62 2117.96 2468.39 2120.75 2463.09 2122.32 2469.07 2123.59 2473.87 2126.56 2477.5 2131.21 2481.13 2135.87 2482.94 2141.18 2482.94 2147.16 2482.94 2155.79 2479.93 2162.62 2473.9 2167.67 2467.87 2172.72 2459.47 2175.24 2448.69 2175.24L2400.62 2175.24ZM2297.18 2072.04 2322.32 2072.04 2322.32 2133.78C2322.32 2139.96 2323.83 2144.71 2326.87 2148.04 2329.91 2151.38 2334.37 2153.04 2340.25 2153.04 2346.13 2153.04 2350.64 2151.38 2353.77 2148.04 2356.91 2144.71 2358.48 2139.96 2358.48 2133.78L2358.48 2072.04 2383.61 2072.04 2383.61 2133.64C2383.61 2142.85 2381.65 2150.64 2377.73 2157.01 2373.81 2163.38 2368.55 2168.18 2361.93 2171.42 2355.32 2174.65 2347.94 2176.27 2339.81 2176.27 2331.67 2176.27 2324.4 2174.68 2317.98 2171.49 2311.56 2168.31 2306.49 2163.5 2302.76 2157.08 2299.04 2150.67 2297.18 2142.85 2297.18 2133.64ZM2242.61 2070.57C2253.97 2070.57 2263.14 2073.29 2270.09 2078.73 2277.05 2084.17 2280.78 2091.74 2281.27 2101.44L2254.07 2101.44C2253.88 2098.11 2252.65 2095.49 2250.4 2093.58 2248.14 2091.67 2245.25 2090.71 2241.72 2090.71 2238.69 2090.71 2236.24 2091.52 2234.37 2093.14 2232.51 2094.76 2231.58 2097.08 2231.58 2100.12 2231.58 2103.45 2233.15 2106.05 2236.28 2107.91 2239.42 2109.77 2244.32 2111.78 2250.98 2113.94 2257.65 2116.19 2263.06 2118.35 2267.23 2120.41 2271.39 2122.47 2274.99 2125.45 2278.03 2129.38 2281.07 2133.29 2282.59 2138.34 2282.59 2144.52 2282.59 2150.4 2281.09 2155.74 2278.11 2160.54 2275.12 2165.34 2270.78 2169.16 2265.1 2172 2259.41 2174.85 2252.7 2176.27 2244.96 2176.27 2237.41 2176.27 2230.65 2175.04 2224.67 2172.59 2218.69 2170.14 2213.92 2166.52 2210.34 2161.71 2206.76 2156.91 2204.88 2151.13 2204.68 2144.37L2231.43 2144.37C2231.83 2148.19 2233.15 2151.11 2235.4 2153.12 2237.66 2155.12 2240.6 2156.13 2244.22 2156.13 2247.95 2156.13 2250.89 2155.27 2253.04 2153.56 2255.2 2151.84 2256.28 2149.46 2256.28 2146.43 2256.28 2143.88 2255.42 2141.77 2253.7 2140.11 2251.99 2138.44 2249.88 2137.07 2247.38 2135.99 2244.88 2134.91 2241.33 2133.69 2236.73 2132.31 2230.06 2130.26 2224.62 2128.2 2220.41 2126.14 2216.19 2124.08 2212.57 2121.04 2209.53 2117.03 2206.49 2113.01 2204.97 2107.77 2204.97 2101.3 2204.97 2091.69 2208.45 2084.17 2215.41 2078.73 2222.37 2073.29 2231.43 2070.57 2242.61 2070.57Z" fill="url(#fill1)" fill-rule="evenodd"/><text fill="#000000" fill-opacity="0" font-family="Arial,Arial_MSFontService,sans-serif" font-size="105.693" x="2204.68" y="2163.06">SUBMIT</text></g></svg>