<svg width="714" height="715" xmlns="http://www.w3.org/2000/svg" xmlns:xlink="http://www.w3.org/1999/xlink" xml:space="preserve" overflow="hidden"><g transform="translate(-1826 -1662)"><path d="M1836.5 2019.5C1836.5 1827.86 1991.63 1672.5 2183 1672.5 2374.37 1672.5 2529.5 1827.86 2529.5 2019.5 2529.5 2211.14 2374.37 2366.5 2183 2366.5 1991.63 2366.5 1836.5 2211.14 1836.5 2019.5Z" stroke="#0EAFE0" stroke-width="20.625" stroke-miterlimit="8" fill="none" fill-rule="evenodd"/><rect x="2001.5" y="1878.5" width="383" height="281" stroke="#0EAFE0" stroke-width="20.625" stroke-miterlimit="8" fill="none"/><path d="M2001 1966 2384.35 1966" stroke="#0EAFE0" stroke-width="13.75" stroke-miterlimit="8" fill="none" fill-rule="evenodd"/><path d="M0 0 79.6511 85.2897" stroke="#0EAFE0" stroke-width="13.75" stroke-miterlimit="8" fill="none" fill-rule="evenodd" transform="matrix(1 0 0 -1 2029 1963.29)"/><path d="M0 0 79.6511 85.2897" stroke="#0EAFE0" stroke-width="13.75" stroke-miterlimit="8" fill="none" fill-rule="evenodd" transform="matrix(1 0 0 -1 2113 1963.29)"/><path d="M0 0 79.6511 85.2897" stroke="#0EAFE0" stroke-width="13.75" stroke-miterlimit="8" fill="none" fill-rule="evenodd" transform="matrix(1 0 0 -1 2198 1968.29)"/><path d="M0 0 79.6511 85.2897" stroke="#0EAFE0" stroke-width="13.75" stroke-miterlimit="8" fill="none" fill-rule="evenodd" transform="matrix(1 0 0 -1 2278 1969.29)"/><text fill="#0EAFE0" font-family="Poppins,Poppins_MSFontService,sans-serif" font-weight="400" font-size="83" transform="matrix(1 0 0 1 2107.46 2089)">MP4</text></g></svg>